Coordinates
version=1
nRows=8
nColumns=40
inDegrees=yes

Units are S.I. units (second, meters, Newtons, ...)
Angles are in degrees.

endheader
time	pelvis_tilt	pelvis_list	pelvis_rotation	pelvis_tx	pelvis_ty	pelvis_tz	hip_flexion_r	hip_adduction_r	hip_rotation_r	knee_angle_r	knee_angle_r_beta	ankle_angle_r	subtalar_angle_r	mtp_angle_r	hip_flexion_l	hip_adduction_l	hip_rotation_l	knee_angle_l	knee_angle_l_beta	ankle_angle_l	subtalar_angle_l	mtp_angle_l	lumbar_extension	lumbar_bending	lumbar_rotation	arm_flex_r	arm_add_r	arm_rot_r	elbow_flex_r	pro_sup_r	wrist_flex_r	wrist_dev_r	arm_flex_l	arm_add_l	arm_rot_l	elbow_flex_l	pro_sup_l	wrist_flex_l	wrist_dev_l
      1.29000000	      1.73117386	     -4.99705571	      1.04302512	     -0.21336149	      0.88739077	     -1.59656720	     21.62309085	      5.42336862	    -16.81016031	    -22.32633458	     -0.38966805	     -4.71991359	     -5.64309257	     -1.31746163	    -13.80502637	      4.84479193	      9.16218707	    -28.59614216	     -0.49909683	      1.31658828	     -3.77066279	     -6.02682012	     -7.01007455	      9.51574465	     -4.16960394	     -1.35255702	     -8.89263973	     18.11705856	     10.27584610	     89.95437384	      0.00000000	      0.00000000	     14.33692201	      9.36885266	     -8.86293746	     39.36451181	     89.95437384	      0.00000000	      0.00000000
      1.30000000	      1.32030358	     -5.78562071	      0.91232597	     -0.20136070	      0.88856140	     -1.59482579	     21.06199249	      6.66299696	    -16.10956544	    -21.98385979	     -0.38369074	     -3.94648980	     -6.79324526	     -0.03208260	    -12.32254758	      6.43323779	     10.74403660	    -31.38882760	     -0.54783839	     -1.93024911	     -4.51741377	     -6.79859017	     -6.30738836	     10.30790820	     -4.04706790	     -1.37481303	     -9.04536046	     18.84835492	     10.37489903	     89.95437384	      0.00000000	      0.00000000	     13.60917556	      9.04555352	     -8.77259451	     38.50322102	     89.95437384	      0.00000000	      0.00000000
      1.31000000	      1.26637959	     -6.01177696	      0.81697832	     -0.18966656	      0.89033349	     -1.59370569	     20.27831806	      7.01739981	    -16.03380904	    -22.08501262	     -0.38545619	     -3.06642669	     -6.32592267	      0.02749245	    -11.29715461	      6.95640210	     10.81999365	    -33.70570953	     -0.58827561	     -5.50683380	     -3.12929605	     -6.19688255	     -6.07453751	     10.51711282	     -3.84086243	     -1.29945995	     -9.09329438	     19.02105438	     10.39579377	     89.95437384	      0.00000000	      0.00000000	     13.14415210	      8.71752233	     -8.92631341	     37.38776338	     89.95437384	      0.00000000	      0.00000000
      1.32000000	      1.15629677	     -6.18370715	      0.72973814	     -0.17809646	      0.89190577	     -1.59248676	     19.46683760	      7.33333919	    -15.98009784	    -21.96766010	     -0.38340800	     -2.27196050	     -5.79257243	      0.07548879	    -10.07447862	      7.52951438	     10.93201285	    -36.10798542	     -0.63020323	     -9.15270803	     -1.90912651	     -5.61026841	     -5.80225758	     10.64498295	     -3.64312503	     -1.24718800	     -9.16087831	     19.07247124	     10.64460797	     89.95437384	      0.00000000	      0.00000000	     12.63259023	      8.45774394	     -9.15553227	     36.31987921	     89.95437384	      0.00000000	      0.00000000
      1.33000000	      1.06818927	     -6.27415782	      0.68608957	     -0.16697105	      0.89330834	     -1.59130185	     18.67496692	      7.58005148	    -15.92269161	    -21.85034683	     -0.38136049	     -1.52024869	     -5.34379201	      0.09895726	     -8.72354504	      8.00998918	     10.70606381	    -38.53985514	     -0.67264737	    -12.91213561	     -0.76754555	     -5.04970630	     -5.61784725	     10.66815978	     -3.47438754	     -1.13037485	     -9.22129131	     19.04691060	     10.95299817	     89.95437384	      0.00000000	      0.00000000	     12.21018859	      8.24228634	     -9.42279366	     35.21795301	     89.95437384	      0.00000000	      0.00000000
      1.34000000	      0.76098896	     -6.38938668	      0.67381417	     -0.15620282	      0.89401667	     -1.59012677	     18.20269851	      7.81753960	    -15.99567304	    -21.82266796	     -0.38087741	     -0.87401924	     -4.88898393	      0.28466895	     -6.91264017	      8.52928074	     10.24124912	    -41.28785805	     -0.72060906	    -15.82550448	     -0.65136420	     -5.09720202	     -5.20682436	     10.70434948	     -3.30989203	     -1.15624050	     -9.38086475	     18.94465009	     11.71297864	     89.95437384	      0.00000000	      0.00000000	     11.77852366	      8.10856298	     -9.94194092	     34.19460211	     89.95437384	      0.00000000	      0.00000000
      1.35000000	      0.90523303	     -6.23634052	      0.71055421	     -0.14549301	      0.89520399	     -1.58923679	     17.21708991	      7.78618023	    -15.86260259	    -21.81130861	     -0.38067915	      0.02184436	     -4.65978112	      0.23092046	     -5.66987528	      8.62935887	      9.57848224	    -43.76805447	     -0.76389666	    -17.86186407	     -0.13638842	     -4.96729732	     -5.33800342	     10.43198839	     -3.11551629	     -0.93028524	     -9.40439658	     18.92284587	     12.00724096	     89.95437384	      0.00000000	      0.00000000	     11.53336269	      7.88499004	    -10.23155238	     32.92734367	     89.95437384	      0.00000000	      0.00000000
      1.36000000	      0.42923169	     -6.31667437	      0.76102267	     -0.13553321	      0.89500532	     -1.58813639	     17.14523077	      7.90871850	    -16.01523830	    -22.12652958	     -0.38618079	      1.15960721	     -4.04809308	      2.27960363	     -3.40922057	      9.05843830	      8.99493406	    -46.62040399	     -0.81367955	    -19.77922924	      1.97732547	    -11.94019314	     -4.81686282	     10.39341390	     -2.91577746	     -0.93086667	     -9.64545835	     19.42774588	     12.90417595	     89.95437384	      0.00000000	      0.00000000	     11.25108772	      7.79475011	    -11.02503040	     31.80198608	     89.95437384	      0.00000000	      0.00000000
